<svg width="164" height="50" xmlns="http://www.w3.org/2000/svg" fill="none">

 <g>
  <title>Layer 1</title>
  <path id="svg_1" fill="#6366f1" d="m78.55,16.45l0,11.95c0,1.85 -0.525,3.275 -1.575,4.275c-1.0333,1 -2.4333,1.5 -4.2,1.5c-1.85,0 -3.3333,-0.525 -4.45,-1.575c-1.1167,-1.05 -1.675,-2.5417 -1.675,-4.475l4.25,0c0,0.7333 0.15,1.2917 0.45,1.675c0.3,0.3667 0.7333,0.55 1.3,0.55c0.5167,0 0.9167,-0.1667 1.2,-0.5c0.2833,-0.3333 0.425,-0.8167 0.425,-1.45l0,-11.95l4.275,0zm12.3031,17.75c-1.3666,0 -2.6,-0.2917 -3.7,-0.875c-1.0833,-0.5833 -1.9416,-1.4167 -2.575,-2.5c-0.6166,-1.0833 -0.925,-2.35 -0.925,-3.8c0,-1.4333 0.3167,-2.6917 0.95,-3.775c0.6334,-1.1 1.5,-1.9417 2.6,-2.525c1.1,-0.5833 2.3334,-0.875 3.7,-0.875c1.3667,0 2.6,0.2917 3.7,0.875c1.1,0.5833 1.9667,1.425 2.6,2.525c0.6334,1.0833 0.95,2.3417 0.95,3.775c0,1.4333 -0.325,2.7 -0.975,3.8c-0.6333,1.0833 -1.5083,1.9167 -2.625,2.5c-1.1,0.5833 -2.3333,0.875 -3.7,0.875zm0,-3.7c0.8167,0 1.5084,-0.3 2.075,-0.9c0.5834,-0.6 0.875,-1.4583 0.875,-2.575c0,-1.1167 -0.2833,-1.975 -0.85,-2.575c-0.55,-0.6 -1.2333,-0.9 -2.05,-0.9c-0.8333,0 -1.525,0.3 -2.075,0.9c-0.55,0.5833 -0.825,1.4417 -0.825,2.575c0,1.1167 0.2667,1.975 0.8,2.575c0.55,0.6 1.2334,0.9 2.05,0.9zm16.3429,-8.475c0.4,-0.65 0.975,-1.175 1.725,-1.575c0.75,-0.4 1.608,-0.6 2.575,-0.6c1.15,0 2.192,0.2917 3.125,0.875c0.933,0.5833 1.667,1.4167 2.2,2.5c0.55,1.0833 0.825,2.3417 0.825,3.775c0,1.4333 -0.275,2.7 -0.825,3.8c-0.533,1.0833 -1.267,1.925 -2.2,2.525c-0.933,0.5833 -1.975,0.875 -3.125,0.875c-0.983,0 -1.842,-0.1917 -2.575,-0.575c-0.733,-0.4 -1.308,-0.925 -1.725,-1.575l0,1.95l-4.275,0l0,-18.5l4.275,0l0,6.525zm6.1,4.975c0,-1.0667 -0.3,-1.9 -0.9,-2.5c-0.583,-0.6167 -1.308,-0.925 -2.175,-0.925c-0.85,0 -1.575,0.3083 -2.175,0.925c-0.583,0.6167 -0.875,1.4583 -0.875,2.525c0,1.0667 0.292,1.9083 0.875,2.525c0.6,0.6167 1.325,0.925 2.175,0.925c0.85,0 1.575,-0.3083 2.175,-0.925c0.6,-0.6333 0.9,-1.4833 0.9,-2.55zm11.243,-8.4c-0.75,0 -1.367,-0.2167 -1.85,-0.65c-0.467,-0.45 -0.7,-1 -0.7,-1.65c0,-0.6667 0.233,-1.2167 0.7,-1.65c0.483,-0.45 1.1,-0.675 1.85,-0.675c0.733,0 1.333,0.225 1.8,0.675c0.483,0.4333 0.725,0.9833 0.725,1.65c0,0.65 -0.242,1.2 -0.725,1.65c-0.467,0.4333 -1.067,0.65 -1.8,0.65zm2.125,1.45l0,13.95l-4.275,0l0,-13.95l4.275,0zm12.598,3.55l-2.3,0l0,10.4l-4.275,0l0,-10.4l-1.55,0l0,-3.55l1.55,0l0,-0.4c0,-1.7167 0.492,-3.0167 1.475,-3.9c0.983,-0.9 2.425,-1.35 4.325,-1.35c0.317,0 0.55,0.0083 0.7,0.025l0,3.625c-0.817,-0.05 -1.392,0.0667 -1.725,0.35c-0.333,0.2833 -0.5,0.7917 -0.5,1.525l0,0.125l2.3,0l0,3.55zm18.759,-3.55l-8.75,20.575l-4.6,0l3.2,-7.1l-5.675,-13.475l4.775,0l3.225,8.725l3.2,-8.725l4.625,0z"/>
  <rect id="svg_2" fill="#6366f1" rx="10" height="50" width="50"/>
  <path id="svg_3" fill="white" d="m26.0039,9.5625l5.8594,0l0,19.6875c0,1.8099 -0.4037,3.4115 -1.211,4.8047c-0.7942,1.3802 -1.9205,2.4479 -3.3789,3.2031c-1.4583,0.7552 -3.1054,1.1328 -4.9414,1.1328c-3.0078,0 -5.3515,-0.7617 -7.0312,-2.2851c-1.6797,-1.5365 -2.5196,-3.7045 -2.5196,-6.5039l5.8985,0c0,1.3932 0.293,2.4218 0.8789,3.0859c0.5859,0.6641 1.5104,0.9961 2.7734,0.9961c1.1198,0 2.0118,-0.3841 2.6758,-1.1524c0.6641,-0.7682 0.9961,-1.8619 0.9961,-3.2812l0,-19.6875z"/>
 </g>
</svg>